<?xml version="1.0" encoding="UTF-8" standalone="no"?>
<!-- Created with Inkscape (http://www.inkscape.org/) -->

<svg
   xmlns:osb="http://www.openswatchbook.org/uri/2009/osb"
   xmlns:dc="http://purl.org/dc/elements/1.1/"
   xmlns:cc="http://creativecommons.org/ns#"
   xmlns:rdf="http://www.w3.org/1999/02/22-rdf-syntax-ns#"
   xmlns:svg="http://www.w3.org/2000/svg"
   xmlns="http://www.w3.org/2000/svg"
   xmlns:xlink="http://www.w3.org/1999/xlink"
   xmlns:sodipodi="http://sodipodi.sourceforge.net/DTD/sodipodi-0.dtd"
   xmlns:inkscape="http://www.inkscape.org/namespaces/inkscape"
   width="387.09982"
   height="48.647999"
   id="svg2"
   version="1.1"
   inkscape:version="0.48.4 r9939"
   sodipodi:docname="ModMaker.svg">
  <defs
     id="defs4">
    <linearGradient
       id="linearGradient5247">
      <stop
         id="stop5249"
         offset="0"
         style="stop-color:#5ceefd;stop-opacity:1;" />
      <stop
         id="stop5251"
         offset="1"
         style="stop-color:#01bcda;stop-opacity:1;" />
    </linearGradient>
    <linearGradient
       id="linearGradient5225"
       osb:paint="gradient">
      <stop
         style="stop-color:#07e5fc;stop-opacity:1;"
         offset="0"
         id="stop5227" />
      <stop
         style="stop-color:#02c6e6;stop-opacity:1;"
         offset="1"
         id="stop5229" />
    </linearGradient>
    <linearGradient
       id="linearGradient5217"
       osb:paint="solid">
      <stop
         style="stop-color:#000000;stop-opacity:1;"
         offset="0"
         id="stop5219" />
    </linearGradient>
    <linearGradient
       id="linearGradient5211"
       osb:paint="solid">
      <stop
         style="stop-color:#09f4fe;stop-opacity:1;"
         offset="0"
         id="stop5213" />
    </linearGradient>
    <inkscape:perspective
       sodipodi:type="inkscape:persp3d"
       inkscape:vp_x="-12.81631 : 37.772982 : 1"
       inkscape:vp_y="0 : 1000 : 0"
       inkscape:vp_z="191.66624 : 27.147212 : 1"
       inkscape:persp3d-origin="87.18369 : 20.392029 : 1"
       id="perspective2994" />
    <radialGradient
       inkscape:collect="always"
       xlink:href="#linearGradient5225"
       id="radialGradient5245"
       cx="174.40408"
       cy="11.549668"
       fx="174.40408"
       fy="11.549668"
       r="22.539255"
       gradientTransform="matrix(1.8045552,0,0,0.92120653,33.322393,-9.6575168)"
       gradientUnits="userSpaceOnUse" />
    <radialGradient
       inkscape:collect="always"
       xlink:href="#linearGradient5247"
       id="radialGradient5271"
       cx="153.35378"
       cy="10.289654"
       fx="153.35378"
       fy="10.289654"
       r="3.5355339"
       gradientTransform="matrix(1,0,0,0.9642857,0,0.36748773)"
       gradientUnits="userSpaceOnUse" />
    <radialGradient
       inkscape:collect="always"
       xlink:href="#linearGradient5247-1"
       id="radialGradient5271-5"
       cx="153.35378"
       cy="10.289654"
       fx="153.35378"
       fy="10.289654"
       r="3.5355339"
       gradientTransform="matrix(1,0,0,0.9642857,0,0.36748773)"
       gradientUnits="userSpaceOnUse" />
    <linearGradient
       id="linearGradient5247-1">
      <stop
         id="stop5249-9"
         offset="0"
         style="stop-color:#5ceefd;stop-opacity:1;" />
      <stop
         id="stop5251-6"
         offset="1"
         style="stop-color:#01bcda;stop-opacity:1;" />
    </linearGradient>
    <radialGradient
       r="3.5355339"
       fy="10.289654"
       fx="153.35378"
       cy="10.289654"
       cx="153.35378"
       gradientTransform="matrix(1,0,0,0.9642857,0,0.36748773)"
       gradientUnits="userSpaceOnUse"
       id="radialGradient5288"
       xlink:href="#linearGradient5247-1"
       inkscape:collect="always" />
    <radialGradient
       inkscape:collect="always"
       xlink:href="#linearGradient5247-5"
       id="radialGradient5271-3"
       cx="153.35378"
       cy="10.289654"
       fx="153.35378"
       fy="10.289654"
       r="3.5355339"
       gradientTransform="matrix(1,0,0,0.9642857,0,0.36748773)"
       gradientUnits="userSpaceOnUse" />
    <linearGradient
       id="linearGradient5247-5">
      <stop
         id="stop5249-7"
         offset="0"
         style="stop-color:#5ceefd;stop-opacity:1;" />
      <stop
         id="stop5251-8"
         offset="1"
         style="stop-color:#01bcda;stop-opacity:1;" />
    </linearGradient>
    <radialGradient
       r="3.5355339"
       fy="10.289654"
       fx="153.35378"
       cy="10.289654"
       cx="153.35378"
       gradientTransform="matrix(1,0,0,0.9642857,0,0.36748773)"
       gradientUnits="userSpaceOnUse"
       id="radialGradient5288-0"
       xlink:href="#linearGradient5247-5"
       inkscape:collect="always" />
    <radialGradient
       inkscape:collect="always"
       xlink:href="#linearGradient5247-2"
       id="radialGradient5271-4"
       cx="153.35378"
       cy="10.289654"
       fx="153.35378"
       fy="10.289654"
       r="3.5355339"
       gradientTransform="matrix(1,0,0,0.9642857,0,0.36748773)"
       gradientUnits="userSpaceOnUse" />
    <linearGradient
       id="linearGradient5247-2">
      <stop
         id="stop5249-5"
         offset="0"
         style="stop-color:#5ceefd;stop-opacity:1;" />
      <stop
         id="stop5251-7"
         offset="1"
         style="stop-color:#01bcda;stop-opacity:1;" />
    </linearGradient>
    <radialGradient
       r="3.5355339"
       fy="10.289654"
       fx="153.35378"
       cy="10.289654"
       cx="153.35378"
       gradientTransform="matrix(1,0,0,0.9642857,0,0.36748773)"
       gradientUnits="userSpaceOnUse"
       id="radialGradient5288-4"
       xlink:href="#linearGradient5247-2"
       inkscape:collect="always" />
    <radialGradient
       inkscape:collect="always"
       xlink:href="#linearGradient5247-6"
       id="radialGradient5271-6"
       cx="153.35378"
       cy="10.289654"
       fx="153.35378"
       fy="10.289654"
       r="3.5355339"
       gradientTransform="matrix(1,0,0,0.9642857,0,0.36748773)"
       gradientUnits="userSpaceOnUse" />
    <linearGradient
       id="linearGradient5247-6">
      <stop
         id="stop5249-4"
         offset="0"
         style="stop-color:#5ceefd;stop-opacity:1;" />
      <stop
         id="stop5251-3"
         offset="1"
         style="stop-color:#01bcda;stop-opacity:1;" />
    </linearGradient>
    <radialGradient
       r="3.5355339"
       fy="10.289654"
       fx="153.35378"
       cy="10.289654"
       cx="153.35378"
       gradientTransform="matrix(1,0,0,0.9642857,0,0.36748773)"
       gradientUnits="userSpaceOnUse"
       id="radialGradient5288-7"
       xlink:href="#linearGradient5247-6"
       inkscape:collect="always" />
  </defs>
  <sodipodi:namedview
     id="base"
     pagecolor="#ffffff"
     bordercolor="#666666"
     borderopacity="1.0"
     inkscape:pageopacity="0.0"
     inkscape:pageshadow="2"
     inkscape:zoom="1.979899"
     inkscape:cx="191.26052"
     inkscape:cy="-11.790927"
     inkscape:document-units="px"
     inkscape:current-layer="text2982"
     showgrid="true"
     inkscape:window-width="1600"
     inkscape:window-height="876"
     inkscape:window-x="0"
     inkscape:window-y="24"
     inkscape:window-maximized="1"
     inkscape:snap-grids="true"
     showguides="false"
     inkscape:snap-global="false"
     fit-margin-top="0"
     fit-margin-left="0"
     fit-margin-right="0"
     fit-margin-bottom="0">
    <inkscape:grid
       type="xygrid"
       id="grid2990"
       empspacing="5"
       visible="true"
       enabled="true"
       snapvisiblegridlinesonly="true"
       originx="-1.6085711px"
       originy="-0.31567262px" />
  </sodipodi:namedview>
  <metadata
     id="metadata7">
    <rdf:RDF>
      <cc:Work
         rdf:about="">
        <dc:format>image/svg+xml</dc:format>
        <dc:type
           rdf:resource="http://purl.org/dc/dcmitype/StillImage" />
        <dc:title></dc:title>
      </cc:Work>
    </rdf:RDF>
  </metadata>
  <g
     inkscape:label="Layer 1"
     inkscape:groupmode="layer"
     id="layer1"
     transform="translate(-1.6085711,23.963673)">
    <g
       style="font-size:56.84451675px;font-style:normal;font-variant:normal;font-weight:normal;font-stretch:normal;line-height:125%;letter-spacing:0px;word-spacing:0px;fill:#ffffff;fill-opacity:1;stroke:none;font-family:Ubuntu;-inkscape-font-specification:Ubuntu"
       id="text2982">
      <path
         d="M 20.367262,16.959394 C 19.988276,16.049888 19.476676,14.894051 18.83246,13.491879 18.226098,12.089724 17.562912,10.573872 16.842902,8.9443172 16.122853,7.3147895 15.345978,5.647352 14.512276,3.9419997 13.716437,2.1987881 12.958511,0.56924691 12.238496,-0.94662872 11.518451,-2.5003539 10.836318,-3.8835691 10.192093,-5.0962784 9.5857399,-6.3089327 9.0930879,-7.2373923 8.7141357,-7.8816598 8.2972654,-3.4098653 7.9561987,1.440862 7.6909344,6.6705365 7.4256504,11.862346 7.1982725,17.110985 7.0088002,22.416468 l -5.4002291,0 C 1.7601525,19.0058 1.9306859,15.576184 2.1201718,12.12761 2.309649,8.6411602 2.5180787,5.2304926 2.7454615,1.8955971 3.0107307,-1.4771536 3.2760048,-4.7551842 3.5412847,-7.9385043 3.8444494,-11.121764 4.166568,-14.13452 4.5076415,-16.976782 l 4.8317839,0 c 1.0231886,1.667476 2.1221816,3.638084 3.2969816,5.911829 1.174771,2.2738122 2.349557,4.6612795 3.52436,7.1624094 1.174768,2.4632863 2.311657,4.9454943 3.410671,7.4466317 1.098972,2.4632788 2.103224,4.718109 3.01276,6.7644979 0.909486,-2.0463889 1.913739,-4.3012191 3.012759,-6.7644979 1.098965,-2.5011374 2.235854,-4.9833454 3.410671,-7.4466317 1.174755,-2.5011299 2.34954,-4.8885972 3.52436,-7.1624094 1.174751,-2.273745 2.273744,-4.244353 3.296982,-5.911829 l 4.831784,0 c 1.288432,12.6953017 2.254788,25.8263719 2.89907,39.39325 l -5.400229,0 C 37.970074,17.110985 37.742696,11.862346 37.477461,6.6705365 37.212147,1.440862 36.871081,-3.4098653 36.45426,-7.8816598 36.075258,-7.2373923 35.563658,-6.3089327 34.919458,-5.0962784 34.31308,-3.8835691 33.649895,-2.5003539 32.9299,-0.94662872 32.209835,0.56924691 31.432961,2.1987881 30.599275,3.9419997 29.803419,5.647352 29.045493,7.3147895 28.325494,8.9443172 27.605434,10.573872 26.9233,12.089724 26.279091,13.491879 c -0.606369,1.402172 -1.099021,2.558009 -1.477957,3.467515 l -4.433872,0"
         style=""
         id="path3272" />
      <path
         d="m 77.956086,7.6368933 c -3.1e-5,2.3495858 -0.341097,4.4717787 -1.023201,6.3665857 -0.682163,1.894824 -1.648519,3.524365 -2.899071,4.888629 -1.212708,1.36427 -2.671716,2.425367 -4.377027,3.183293 -1.705357,0.72003 -3.562276,1.080045 -5.570763,1.080045 -2.008521,0 -3.86544,-0.360015 -5.570763,-1.080045 C 56.809916,21.317475 55.33196,20.256378 54.081389,18.892108 52.8687,17.527844 51.921293,15.898303 51.239163,14.003479 50.557026,12.108672 50.215959,9.9864791 50.215962,7.6368933 c -3e-6,-2.3116599 0.341064,-4.4149049 1.023201,-6.3097413 0.68213,-1.9326906 1.629537,-3.5811799 2.842226,-4.945473 1.250571,-1.364241 2.728527,-2.4063894 4.433872,-3.1264484 1.705323,-0.757897 3.562242,-1.1368601 5.570763,-1.1368904 2.008487,3.03e-5 3.865406,0.3789934 5.570763,1.1368904 1.705311,0.720059 3.164319,1.7622074 4.377027,3.1264484 1.250552,1.3642931 2.216908,3.0127824 2.899071,4.945473 0.682104,1.8948364 1.02317,3.9980814 1.023201,6.3097413 m -5.513918,0 C 72.442143,4.3020331 71.684217,1.6682398 70.168387,-0.26449452 68.690408,-2.2350798 66.662956,-3.2203838 64.086024,-3.2204094 c -2.576966,2.56e-5 -4.623366,0.9853296 -6.139208,2.95591488 -1.477967,1.93273432 -2.216945,4.56652762 -2.216936,7.90138782 -9e-6,3.3348897 0.738969,5.9876317 2.216936,7.9582327 1.515842,1.932718 3.562242,2.899074 6.139208,2.89907 2.576932,4e-6 4.604384,-0.966352 6.082363,-2.89907 1.51583,-1.970601 2.273756,-4.623343 2.273781,-7.9582327"
         style=""
         id="path3274" />
      <path
         d="m 104.4936,-0.8897842 c -0.64427,-0.530525 -1.57273,-1.0421251 -2.78539,-1.534802 -1.2127,-0.4926271 -2.53907,-0.7389531 -3.979112,-0.7389787 -1.51587,2.56e-5 -2.823292,0.2842479 -3.922272,0.8526678 -1.06111,0.530573 -1.932725,1.2884991 -2.614848,2.27378065 -0.682144,0.94743012 -1.174796,2.08431935 -1.477957,3.41067105 -0.30318,1.3263897 -0.454765,2.7475012 -0.454756,4.2633387 -9e-6,3.4485787 0.852658,6.1202687 2.558003,8.0150767 1.705323,1.856926 3.979101,2.785385 6.821342,2.785381 1.44004,4e-6 2.63378,-0.05684 3.5812,-0.170533 0.98529,-0.151581 1.74321,-0.303166 2.27379,-0.454756 l 0,-18.7018462 m 0,-19.8955808 5.28654,-0.909512 0,43.258677 c -1.21272,0.341068 -2.76646,0.682134 -4.66126,1.023201 -1.89483,0.341067 -4.07387,0.5116 -6.537115,0.511601 -2.273796,-1e-6 -4.320196,-0.360016 -6.139208,-1.080046 -1.819034,-0.720029 -3.372782,-1.74323 -4.66125,-3.069604 -1.288481,-1.326367 -2.292733,-2.93696 -3.012759,-4.831784 -0.682138,-1.932703 -1.023204,-4.092793 -1.023202,-6.4802747 -2e-6,-2.2737636 0.28422,-4.3580605 0.852668,-6.2528968 0.606337,-1.89479433 1.477952,-3.5243355 2.614848,-4.8886285 1.136883,-1.3642411 2.520098,-2.4253377 4.14965,-3.1832929 1.667427,-0.757897 3.562242,-1.1368601 5.684451,-1.1368903 1.705318,3.02e-5 3.202227,0.227408 4.490717,0.6821342 1.32635,0.4547852 2.31165,0.8905927 2.95592,1.3074238 l 0,-14.9501078"
         style=""
         id="path3276" />
      <path
         d="m 136.94293,16.959394 c -0.37899,-0.909506 -0.89059,-2.065343 -1.5348,-3.467515 -0.60636,-1.402155 -1.26955,-2.918007 -1.98956,-4.5475618 -0.72005,-1.6295277 -1.49692,-3.2969652 -2.33063,-5.0023175 -0.79583,-1.7432116 -1.55376,-3.37275279 -2.27378,-4.88862842 -0.72004,-1.55372518 -1.40217,-2.93694038 -2.0464,-4.14964968 -0.60635,-1.2126543 -1.099,-2.1411139 -1.47796,-2.7853814 -0.41687,4.4717945 -0.75793,9.3225218 -1.0232,14.5521963 -0.26528,5.1918095 -0.49266,10.4404485 -0.68213,15.7459315 l -5.40023,0 c 0.15158,-3.410668 0.32211,-6.840284 0.5116,-10.288858 0.18948,-3.4864498 0.39791,-6.8971174 0.62529,-10.2320129 0.26527,-3.3727507 0.53054,-6.6507813 0.79582,-9.8341014 0.30317,-3.1832597 0.62529,-6.1960157 0.96636,-9.0382777 l 4.83178,0 c 1.02319,1.667476 2.12219,3.638084 3.29699,5.911829 1.17477,2.2738122 2.34955,4.6612795 3.52436,7.1624094 1.17476,2.4632863 2.31165,4.9454943 3.41067,7.4466317 1.09897,2.4632788 2.10322,4.718109 3.01276,6.7644979 0.90948,-2.0463889 1.91373,-4.3012191 3.01276,-6.7644979 1.09896,-2.5011374 2.23585,-4.9833454 3.41067,-7.4466317 1.17475,-2.5011299 2.34954,-4.8885972 3.52436,-7.1624094 1.17475,-2.273745 2.27374,-4.244353 3.29698,-5.911829 l 4.83178,0 c 1.28843,12.6953017 2.25479,25.8263719 2.89907,39.39325 l -5.40023,0 c -0.18952,-5.305483 -0.4169,-10.554122 -0.68213,-15.7459315 -0.26531,-5.2296745 -0.60638,-10.0804018 -1.0232,-14.5521963 -0.379,0.6442675 -0.8906,1.5727271 -1.5348,2.7853814 -0.60638,1.2127093 -1.26957,2.5959245 -1.98956,4.14964968 -0.72007,1.51587563 -1.49694,3.14541682 -2.33063,4.88862842 -0.79585,1.7053523 -1.55378,3.3727898 -2.27378,5.0023175 -0.72006,1.6295548 -1.40219,3.1454068 -2.0464,4.5475618 -0.60637,1.402172 -1.09902,2.558009 -1.47796,3.467515 l -4.43387,0"
         style=""
         id="path3278" />
      <path
         d="m 178.44476,18.607885 c 1.25056,4e-6 2.34956,-0.01894 3.29698,-0.05684 0.98529,-0.07579 1.80006,-0.189478 2.44432,-0.341068 l 0,-8.8108997 c -0.37899,-0.1894685 -1.00428,-0.3410537 -1.87587,-0.4547561 -0.83374,-0.1515718 -1.85694,-0.2273644 -3.06961,-0.2273781 -0.79583,1.37e-5 -1.6485,0.056858 -2.558,0.1705336 -0.87163,0.1137024 -1.6864,0.3600284 -2.44431,0.7389787 -0.72004,0.3410795 -1.32639,0.8337316 -1.81903,1.4779576 -0.49266,0.606352 -0.73899,1.421123 -0.73898,2.444314 -1e-5,1.894824 0.60634,3.221195 1.81903,3.979116 1.21267,0.720035 2.86116,1.08005 4.94547,1.080046 M 177.99,-7.8816598 c 2.12218,3.03e-5 3.90331,0.2842526 5.34339,0.8526678 1.47793,0.5305777 2.65272,1.307452 3.52436,2.3306252 0.90949,0.9853311 1.55372,2.1790647 1.93271,3.5812045 0.37894,1.3642906 0.56842,2.8801429 0.56845,4.5475614 l 0,18.4744679 c -0.45478,0.07579 -1.09902,0.189482 -1.93272,0.341067 -0.79584,0.113689 -1.70535,0.227378 -2.72853,0.341067 -1.02322,0.113689 -2.14117,0.20843 -3.35383,0.284223 -1.1748,0.113688 -2.34959,0.170533 -3.52436,0.170533 -1.66745,0 -3.20225,-0.170534 -4.60441,-0.5116 -1.40217,-0.341067 -2.61485,-0.871615 -3.63804,-1.591647 -1.02321,-0.757924 -1.81903,-1.743228 -2.38747,-2.955915 -0.56845,-1.212677 -0.85267,-2.671685 -0.85267,-4.377027 0,-1.629533 0.32211,-3.031696 0.96635,-4.2064947 0.68213,-1.1747725 1.59165,-2.1221801 2.72854,-2.8422258 1.13688,-0.720014 2.46326,-1.2505623 3.97912,-1.5916465 1.51584,-0.3410493 3.10748,-0.5115827 4.77494,-0.5116006 0.53053,1.79e-5 1.08003,0.037914 1.64849,0.113689 0.56843,0.037914 1.09897,0.1137068 1.59164,0.2273781 0.53053,0.07581 0.98529,0.1516028 1.36427,0.227378 0.37895,0.07581 0.64422,0.1326545 0.79583,0.1705336 l 0,-1.4779574 c -2e-5,-0.8715964 -0.0948,-1.7242633 -0.28423,-2.5580033 -0.1895,-0.87159379 -0.53056,-1.62951992 -1.0232,-2.2737807 -0.49267,-0.68211 -1.1748,-1.2126582 -2.0464,-1.5916464 -0.83374,-0.4168343 -1.93273,-0.625264 -3.29698,-0.6252897 -1.74325,2.57e-5 -3.27805,0.1326628 -4.60441,0.3979116 -1.28848,0.2274032 -2.25484,0.4737292 -2.89907,0.7389787 l -0.62529,-4.3770278 c 0.68213,-0.3031414 1.81902,-0.5873637 3.41067,-0.8526677 1.59164,-0.3031406 3.31592,-0.4547259 5.17285,-0.4547562"
         style=""
         id="path3280" />
      <path
         d="m 208.77042,6.1589359 c 1.13687,0.8716313 2.33061,1.951676 3.5812,3.2401374 1.28846,1.2884877 2.53904,2.6906507 3.75174,4.2064947 1.25056,1.477964 2.42534,2.993817 3.52436,4.547561 1.09897,1.515856 2.02743,2.936968 2.78538,4.263339 l -6.19605,0 c -0.79585,-1.326371 -1.7243,-2.67169 -2.78538,-4.035961 -1.02322,-1.402159 -2.10327,-2.72853 -3.24014,-3.979116 -1.1369,-1.288467 -2.29274,-2.463252 -3.46751,-3.52436 -1.1748,-1.0610853 -2.29274,-1.9516485 -3.35383,-2.6716925 l 0,14.2111295 -5.28654,0 0,-43.201833 5.28654,-0.909512 0,26.9443006 c 0.9095,-0.9094942 1.91375,-1.9137463 3.01276,-3.0127594 1.09898,-1.0989727 2.17902,-2.21691374 3.24014,-3.3538265 1.06108,-1.1368656 2.06533,-2.2169104 3.01276,-3.2401374 0.94738,-1.0610698 1.76215,-1.9895293 2.44431,-2.7853813 l 6.19605,0 c -0.87164,0.9474372 -1.81905,1.9895856 -2.84222,3.1264484 -1.02323,1.1369156 -2.08433,2.292753 -3.1833,3.4675155 -1.09901,1.13691216 -2.21695,2.2927495 -3.35382,3.4675155 -1.09901,1.1369087 -2.14116,2.2169535 -3.12645,3.2401375"
         style=""
         id="path3282" />
      <path
         d="m 224.60079,7.6937378 c 0,-2.6148304 0.37896,-4.8886088 1.13689,-6.82134198 0.75792,-1.97058642 1.76218,-3.60012762 3.01276,-4.88862842 1.25057,-1.288448 2.69063,-2.2548038 4.32019,-2.8990704 1.62953,-0.6442079 3.29696,-0.9663265 5.00231,-0.9663568 3.9791,3.03e-5 7.02975,1.2506085 9.15197,3.7517381 2.12217,2.4632865 3.18326,6.233969 3.18329,11.3120589 -3e-5,0.2273931 -3e-5,0.5305635 0,0.9095122 -3e-5,0.3410811 -0.019,0.6631997 -0.0568,0.9663568 l -20.23665,0 c 0.22737,3.0696138 1.11793,5.4002368 2.67169,6.9918758 1.55374,1.591651 3.9791,2.387473 7.2761,2.387469 1.8569,4e-6 3.41065,-0.151581 4.66125,-0.454756 1.28845,-0.341062 2.25481,-0.663181 2.89907,-0.966356 l 0.73898,4.433872 c -0.64426,0.341068 -1.78115,0.701083 -3.41067,1.080046 -1.59167,0.378963 -3.41069,0.568444 -5.45707,0.568445 -2.57697,-1e-6 -4.81285,-0.378964 -6.70766,-1.13689 -1.85693,-0.795822 -3.39173,-1.875867 -4.6044,-3.240138 -1.21269,-1.364263 -2.1222,-2.974856 -2.72854,-4.831784 -0.56845,-1.894807 -0.85267,-3.9601554 -0.85267,-6.1960522 m 20.29349,-2.8990703 c 0.0379,-2.3874497 -0.56846,-4.33910951 -1.81902,-5.8549853 -1.2127,-1.553725 -2.89909,-2.3305993 -5.05916,-2.3306251 -1.2127,2.58e-5 -2.29274,0.2463518 -3.24014,0.7389787 -0.90952,0.4547807 -1.6864,1.0611216 -2.33062,1.81902451 -0.64425,0.75794939 -1.15585,1.62956444 -1.53481,2.61484779 -0.34107,0.9853246 -0.56845,1.9895767 -0.68213,3.0127594 l 14.66588,0"
         style=""
         id="path3284" />
      <path
         d="m 268.91642,-7.7679707 c 0.45474,3.02e-5 0.96634,0.037927 1.5348,0.113689 0.60633,0.037926 1.19372,0.113719 1.76218,0.2273781 0.56843,0.075822 1.08003,0.1705632 1.53481,0.2842226 0.49263,0.075822 0.85264,0.1516147 1.08004,0.227378 l -0.90951,4.6044059 c -0.41688,-0.1515605 -1.11796,-0.3220939 -2.10325,-0.5116007 -0.94742,-0.2273526 -2.17905,-0.3410415 -3.69489,-0.3410671 -0.98532,2.56e-5 -1.97062,0.1137145 -2.95592,0.3410671 -0.94742,0.1895068 -1.57271,0.3221439 -1.87587,0.3979116 l 0,24.8410542 -5.28654,0 0,-28.3085697 c 1.25058,-0.4547273 2.80433,-0.8715867 4.66125,-1.2505793 1.85691,-0.4168299 3.94121,-0.6252595 6.2529,-0.6252897"
         style=""
         id="path3286" />
    </g>
    <path
       inkscape:connector-curvature="0"
       id="path5360"
       style="fill:#bbbbbb;fill-opacity:0.97260275;fill-rule:evenodd;stroke:none"
       d="M 325.78004,17.532332 357.4525,23.59833 364.51477,8.2236575 342.02908,4.9786713 z" />
    <path
       inkscape:connector-curvature="0"
       id="path5362"
       style="fill:#bfbfbf;fill-opacity:0.97260275;fill-rule:evenodd;stroke:none"
       d="m 325.78004,-11.46192 0,28.994252 16.24904,-12.5536607 0,-20.1740313 z" />
    <path
       inkscape:connector-curvature="0"
       id="path5364"
       style="fill:#cccccc;fill-opacity:0.97260275;fill-rule:evenodd;stroke:none"
       d="m 342.02908,-15.19536 22.48569,1.877957 0,21.5410605 -22.48569,-3.2449862 z" />
    <path
       inkscape:connector-curvature="0"
       id="path5368"
       style="fill:#b3b3b3;fill-opacity:0.97260275;fill-rule:evenodd;stroke:none"
       d="m 357.4525,-8.3058142 0,31.9041442 7.06227,-15.3746725 0,-21.5410605 z" />
    <path
       inkscape:connector-curvature="0"
       id="path5370"
       style="fill:#bfbfbf;fill-opacity:0.97260275;fill-rule:evenodd;stroke:none"
       d="m 325.78004,-11.46192 31.67246,3.1561058 0,31.9041442 -31.67246,-6.065998 z" />
    <path
       style="fill:none;stroke:url(#radialGradient5245);stroke-width:1.80455506"
       d="m 323.04571,-13.254277 c -9.2435,4.3293306 -24.72273,11.5069045 -5.81041,22.8998799 18.91235,11.3929711 37.82467,14.5830061 50.35694,7.2915021 12.53228,-7.2915021 15.03872,-9.3422399 15.03872,-9.3422399 0,0 11.96263,-9.0004404 -0.45571,-17.4312494 -12.41833,-8.4308007 -37.88435,-13.5978687 -59.12954,-3.4178927"
       id="path2995"
       inkscape:connector-curvature="0"
       sodipodi:nodetypes="csscsc" />
    <path
       sodipodi:type="arc"
       style="fill:url(#radialGradient5288);fill-opacity:1;stroke:none"
       id="path5253-0"
       sodipodi:cx="153.35378"
       sodipodi:cy="10.289654"
       sodipodi:rx="3.5355339"
       sodipodi:ry="3.4092648"
       d="m 156.88931,10.289654 c 0,1.882885 -1.58291,3.409265 -3.53553,3.409265 -1.95263,0 -3.53554,-1.52638 -3.53554,-3.409265 0,-1.8828852 1.58291,-3.409265 3.53554,-3.409265 1.95262,0 3.53553,1.5263798 3.53553,3.409265 z"
       transform="matrix(1.804555,0,0,1.804555,62.032694,-36.379713)" />
    <path
       inkscape:connector-curvature="0"
       id="path5366"
       style="fill:#cccccc;fill-opacity:0.97260275;fill-rule:evenodd;stroke:none"
       d="m 325.78004,-11.46192 31.67246,3.1561058 7.06227,-5.0115888 -22.48569,-1.877957 z" />
    <path
       sodipodi:type="arc"
       style="fill:url(#radialGradient5271);fill-opacity:1;stroke:none"
       id="path5253"
       sodipodi:cx="153.35378"
       sodipodi:cy="10.289654"
       sodipodi:rx="3.5355339"
       sodipodi:ry="3.4092648"
       d="m 156.88931,10.289654 c 0,1.882885 -1.58291,3.409265 -3.53553,3.409265 -1.95263,0 -3.53554,-1.52638 -3.53554,-3.409265 0,-1.8828852 1.58291,-3.409265 3.53554,-3.409265 1.95262,0 3.53553,1.5263798 3.53553,3.409265 z"
       transform="matrix(1.804555,0,0,1.804555,32.638808,-18.720602)" />
    <path
       sodipodi:type="arc"
       style="fill:url(#radialGradient5288-0);fill-opacity:1;stroke:none"
       id="path5253-3"
       sodipodi:cx="153.35378"
       sodipodi:cy="10.289654"
       sodipodi:rx="3.5355339"
       sodipodi:ry="3.4092648"
       d="m 156.88931,10.289654 c 0,1.882885 -1.58291,3.409265 -3.53553,3.409265 -1.95263,0 -3.53554,-1.52638 -3.53554,-3.409265 0,-1.8828852 1.58291,-3.409265 3.53554,-3.409265 1.95262,0 3.53553,1.5263798 3.53553,3.409265 z"
       transform="matrix(1.804555,0,0,1.804555,98.034491,-30.341437)" />
    <path
       sodipodi:type="arc"
       style="fill:url(#radialGradient5288-4);fill-opacity:1;stroke:none"
       id="path5253-7"
       sodipodi:cx="153.35378"
       sodipodi:cy="10.289654"
       sodipodi:rx="3.5355339"
       sodipodi:ry="3.4092648"
       d="m 156.88931,10.289654 c 0,1.882885 -1.58291,3.409265 -3.53553,3.409265 -1.95263,0 -3.53554,-1.52638 -3.53554,-3.409265 0,-1.8828852 1.58291,-3.409265 3.53554,-3.409265 1.95262,0 3.53553,1.5263798 3.53553,3.409265 z"
       transform="matrix(1.804555,0,0,1.804555,102.70561,-8.8087155)" />
    <path
       sodipodi:type="arc"
       style="fill:url(#radialGradient5288-7);fill-opacity:1;stroke:none"
       id="path5253-06"
       sodipodi:cx="153.35378"
       sodipodi:cy="10.289654"
       sodipodi:rx="3.5355339"
       sodipodi:ry="3.4092648"
       d="m 156.88931,10.289654 c 0,1.882885 -1.58291,3.409265 -3.53553,3.409265 -1.95263,0 -3.53554,-1.52638 -3.53554,-3.409265 0,-1.8828852 1.58291,-3.409265 3.53554,-3.409265 1.95262,0 3.53553,1.5263798 3.53553,3.409265 z"
       transform="matrix(1.804555,0,0,1.804555,62.032694,-0.03612464)"
       inkscape:transform-center-x="-9.3422332"
       inkscape:transform-center-y="-2.7343139" />
  </g>
</svg>
